# xmcd
#
# Track frame offsets: 
#        150
#        5090
#        9852
#        14177
#        15960
#        19276
#        22193
#        26224
#        27947
#        34655
#        40671
#        47448
#        55103
#        63647
#        67282
#        69986
#        74917
#        79424
#        90609
#        101002
#        105348
#        111388
#        121530
#        125909
#        128733
#        132699
#        142862
#        150249
#        160760
#        166175
#        173414
#        177405
#        185736
#        188224
#        191471
#        195539
#        206958
#        217538
#        220104
#        224975
#        228460
#        236312
#        237692
#        243594
#        249033
#        253834
#        262108
#        263541
#        266592
#        271552
#        275177
#        277623
#        284363
#        288382
#        294774
#        300584
#        306076
#        307667
#        310692
#
# Disc length: 4234 seconds
#
# Revision: 1
# Processed by: cddbd v1.5.2PL0 Copyright (c) Steve Scherf et al.
# Submitted via: ExactAudioCopyFreeDBPlugin 1.0
#
DISCID=5710883b
DTITLE=Merle Watson and Doc Watson - Fingerpicking, Flatpicking and Slid
DTITLE=e - Audio Lesson [CD 1]
DYEAR=2000
DGENRE=Bluegrass
TTITLE0=Opening Tune and Greeting
TTITLE1=Spike Driver's Blues - Played
TTITLE2=Southbound - Played
TTITLE3=Southbound - Techniques
TTITLE4=Southbound - Played slowly
TTITLE5=Southbound - Pull-offs on D part explained
TTITLE6=Southbound - D part variation
TTITLE7=Southbound - C position variations
TTITLE8=Southbound - Played at speed
TTITLE9=Will The Circle Be Unbroken - Played
TTITLE10=Will The Circle Be Unbroken - Played slowly
TTITLE11=Candy Man - Played
TTITLE12=Candy Man - Techniques and fingerings - 1st part
TTITLE13=Candy Man - Techniques and fingerings - 2nd part
TTITLE14=Candy Man - 2nd part to end - played slowly
TTITLE15=Candy Man - Played at speed
TTITLE16=Goin' Down the Road - Played
TTITLE17=Goin' Down the Road - Tuning and techniques
TTITLE18=Goin' Down the Road - Fingerings and techniques
TTITLE19=Make Me A Pallet On The Floor - Played
TTITLE20=Make Me A Pallet On The Floor - Fingerings and techniques
TTITLE21=Make Me A Pallet On The Floor - Played with vocal
TTITLE22=Nine-Pound Hammer - Played
TTITLE23=Nine-Pound Hammer - Played slowly
TTITLE24=Nine-Pound Hammer - Techniques
TTITLE25=Nine-Pound Hammer - Played with vocal
TTITLE26=The Last Thing On My Mind - Played
TTITLE27=The Last Thing On My Mind - Played Slowly
TTITLE28=Worried Blues - Open D tuning
TTITLE29=Worried Blues - Played
TTITLE30=Bonaparte's Retreat - Open G tuning
TTITLE31=Bonaparte's Retreat - Played
TTITLE32=Bonaparte's Retreat - 1st part - played slowly
TTITLE33=Bonaparte's Retreat - 2nd part - techniques
TTITLE34=Bonaparte's Retreat - 3rd part - played slowly
TTITLE35=Bonaparte's Retreat - Played at speed
TTITLE36=Windy and Warm - Played
TTITLE37=Windy and Warm - Merle's 1st part - played
TTITLE38=Windy and Warm - Merle's 1st part - techniques
TTITLE39=Windy and Warm - Doc's 1st part - harmony techniques
TTITLE40=Windy and Warm - Doc's 2nd part - techniques
TTITLE41=Windy and Warm - Doc's major part - played
TTITLE42=Windy and Warm - Doc's major part - techniques
TTITLE43=Windy and Warm - Merle's "A" position lead
TTITLE44=Windy and Warm - "A" major part - techniques
TTITLE45=Blue Railroad Train - Played with vocal
TTITLE46=Blue Railroad Train - Merle's 1st part - lead techniques
TTITLE47=Blue Railroad Train - Merle's 1st part - played
TTITLE48=Blue Railroad Train - Doc's 1st part - harmony techniques
TTITLE49=Blue Railroad Train - Flatpicking part
TTITLE50=Blue Railroad Train - Bass run
TTITLE51=Solid Gone - Played with vocal
TTITLE52=Solid Gone - Merle's lead - played slowly
TTITLE53=Solid Gone - Doc's harmony played
TTITLE54=Deep River Blues - Played
TTITLE55=Deep River Blues - Chords and techniques
TTITLE56=Deep River Blues - Merle's lead version #1
TTITLE57=Deep River Blues - Merle's lead version #2
TTITLE58=Deep River Blues - Doc's harmony part - techniques
EXTD=
EXTT0=
EXTT1=
EXTT2=
EXTT3=
EXTT4=
EXTT5=
EXTT6=
EXTT7=
EXTT8=
EXTT9=
EXTT10=
EXTT11=
EXTT12=
EXTT13=
EXTT14=
EXTT15=
EXTT16=
EXTT17=
EXTT18=
EXTT19=
EXTT20=
EXTT21=
EXTT22=
EXTT23=
EXTT24=
EXTT25=
EXTT26=
EXTT27=
EXTT28=
EXTT29=
EXTT30=
EXTT31=
EXTT32=
EXTT33=
EXTT34=
EXTT35=
EXTT36=
EXTT37=
EXTT38=
EXTT39=
EXTT40=
EXTT41=
EXTT42=
EXTT43=
EXTT44=
EXTT45=
EXTT46=
EXTT47=
EXTT48=
EXTT49=
EXTT50=
EXTT51=
EXTT52=
EXTT53=
EXTT54=
EXTT55=
EXTT56=
EXTT57=
EXTT58=
PLAYORDER=
